<svg xmlns="http://www.w3.org/2000/svg" viewBox="0 0 512 512">
  <rect width="512" height="512" rx="96" fill="#1b75bb"/>
  <path d="M159 275c-42 0-76-31-76-70 0-36 28-66 65-70 17-44 61-75 112-75 61 0 112 43 119 99 31 10 53 38 53 71 0 41-36 75-81 75H159Z" fill="#fff"/>
  <path d="M185 350c0 24-18 43-40 43s-40-19-40-43c0-17 20-49 32-67 4-6 12-6 16 0 12 18 32 50 32 67Zm113 24c0 32-24 58-54 58s-54-26-54-58c0-24 31-70 45-90 4-6 14-6 18 0 14 20 45 66 45 90Zm111-24c0 24-18 43-40 43s-40-19-40-43c0-17 20-49 32-67 4-6 12-6 16 0 12 18 32 50 32 67Z" fill="#bfe6f5"/>
</svg>
